v -20.000000 -32.500000 9.999993
v -20.000000 -32.500000 -10.000005
v -20.000000 35.000000 9.999993
v -20.000000 35.000000 -10.000005
v -40.000000 35.000000 -10.000000
v -40.000000 35.000000 9.999999
v -20.000000 34.999985 9.999995
v -20.000000 34.999985 -10.000001
v -39.999996 -32.500008 -10.000000
v -39.999996 -32.500008 9.999999
v -20.000000 -32.500015 9.999995
v -20.000000 -32.500015 -10.000001
v -20.000000 -100.000000 9.999996
v -20.000000 -100.000000 -10.000005
v -20.000000 -32.500000 9.999996
v -20.000000 -32.500000 -10.000005
v -20.000000 35.000000 19.999996
v -20.000000 35.000000 -20.000004
v -20.000000 75.000000 19.999996
v -20.000000 75.000000 -20.000004
v 20.000000 -32.500000 -10.000002
v 20.000000 -32.500000 9.999996
v 20.000000 35.000000 -10.000002
v 20.000000 35.000000 9.999996
v 20.000000 -32.500015 -10.000001
v 20.000000 -32.500015 9.999995
v 39.999996 -32.500008 9.999999
v 39.999996 -32.500008 -10.000000
v 20.000000 34.999985 -10.000001
v 20.000000 34.999985 9.999995
v 40.000000 35.000000 9.999999
v 40.000000 35.000000 -10.000000
v 0.000001 -100.000000 -10.000005
v -0.000001 -100.000000 9.999996
v 0.000000 -32.500000 9.999996
v 0.000000 -32.500000 -10.000005
v 20.000000 35.000000 -20.000004
v 20.000000 35.000000 19.999996
v 20.000000 75.000000 -20.000004
v 20.000000 75.000000 19.999996
v 20.000000 -32.500000 -10.000005
v 20.000000 -32.500000 9.999996
v 20.000000 -100.000000 -10.000005
v 20.000000 -100.000000 9.999996
v 0.000000 -100.000000 -10.000005
v 0.000000 -100.000000 9.999996
v 0.000000 -32.500000 9.999996
v 0.000000 -32.500000 -10.000005
v -22.000000 33.029953 21.999996
v -22.000000 33.029953 -22.000006
v -22.000000 77.029892 21.999996
v -22.000000 77.029892 -22.000006
v 22.000000 33.029953 -22.000006
v 22.000000 33.029953 21.999996
v 22.000000 77.029892 -22.000006
v 22.000000 77.029892 21.999996
v -20.000000 -32.500000 13.644027
v -20.000000 35.000000 13.644027
v 20.000000 -32.500000 13.644027
v 20.000000 35.000000 13.644027
v 20.000000 35.000000 9.999999
v 20.000000 -32.500000 9.999999
v -20.000000 -32.500000 9.999999
v -20.000000 35.000000 9.999999
vt 0.500000 0.375000
vt 0.500000 0.000000
vt 0.625000 0.000000
vt 0.437500 0.375000
vt 0.437500 0.000000
vt 0.312500 0.375000
vt 0.312500 0.000000
vt 0.562500 0.375000
vt 0.562500 0.500000
vt 0.437500 0.500000
vt 0.312500 0.500000
vt 0.187500 0.000000
vt 0.125000 0.000000
vt 0.125000 0.375000
vt 0.812500 0.375000
vt 0.875000 0.375000
vt 0.875000 0.000000
vt 0.812500 0.000000
vt 0.750000 0.000000
vt 0.187500 0.500000
vt 0.125000 0.500000
vt 0.062500 0.375000
vt 0.062500 0.000000
vt 0.000000 0.000000
vt 0.375000 0.750000
vt 0.375000 0.500000
vt 0.500000 0.500000
vt 0.250000 0.750000
vt 0.250000 0.500000
vt 0.125000 0.750000
vt 0.375000 1.000000
vt 0.250000 1.000000
vt 0.125000 1.000000
vt 0.187500 0.375000
vt 0.250000 0.000000
vt 0.812500 0.500000
vt 0.750000 0.500000
vt 0.687500 0.375000
vt 0.750000 0.375000
vt 0.000000 0.500000
vt 0.062500 0.500000
vt 0.687500 0.000000
vt 0.625000 0.375000
vt 0.687500 0.500000
vt 0.875000 0.750000
vt 0.875000 0.500000
vt 1.000000 0.500000
vt 0.750000 0.750000
vt 0.625000 0.750000
vt 0.625000 0.500000
vt 0.875000 1.000000
vt 0.750000 1.000000
vt 0.625000 1.000000
vt 1.000000 0.000000
vt 1.000000 0.375000
vt 1.000000 0.343750
vt 0.875000 0.343750
vt 0.984375 0.000000
vt 0.984375 0.375000
vt 0.890625 0.375000
vt 0.890625 0.000000
vt 0.875000 0.031250
vt 1.000000 0.031250
vt 0.000000 0.375000
vt 0.500000 0.750000
vt 0.250000 0.375000
vt 0.000000 0.750000
vt 1.000000 0.750000
vn -0.000000 0.000000 1.000000
vn -1.000000 0.000000 0.000000
vn 0.000000 0.000000 -1.000000
vn 0.000000 -1.000000 0.000000
vn 0.000000 1.000000 0.000000
vn 1.000000 0.000000 0.000000
f 3/1/1 1/2/1 22/3/1
f 4/4/2 2/5/2 1/2/2
f 23/6/3 21/7/3 2/5/3
f 21/8/4 22/9/4 1/10/4
f 3/10/5 24/11/5 23/6/5
f 45/12/2 46/13/2 47/14/2
f 7/15/1 6/16/1 10/17/1
f 7/15/6 11/18/6 12/19/6
f 34/20/4 13/21/4 14/14/4
f 16/22/2 14/23/2 13/24/2
f 19/25/1 17/26/1 38/27/1
f 20/28/2 18/29/2 17/26/2
f 39/30/3 37/21/3 18/29/3
f 38/31/4 17/32/4 18/28/4
f 19/32/5 40/33/5 39/30/5
f 15/34/1 13/12/1 34/35/1
f 43/13/3 45/23/3 48/22/3
f 36/22/3 33/23/3 14/13/3
f 28/15/4 27/36/4 26/37/4
f 32/38/5 29/39/5 30/37/5
f 46/35/1 44/12/1 42/34/1
f 35/14/6 34/13/6 33/12/6
f 44/24/6 43/23/6 41/22/6
f 22/35/6 21/7/6 23/6/6
f 38/40/6 37/21/6 39/30/6
f 15/21/5 35/41/5 36/22/5
f 8/39/3 12/19/3 9/42/3
f 5/43/2 9/3/2 10/42/2
f 27/42/6 28/3/6 32/43/6
f 5/38/5 6/44/5 7/37/5
f 28/42/3 25/19/3 29/39/3
f 43/14/4 44/21/4 46/20/4
f 25/19/2 26/18/2 30/15/2
f 11/37/4 10/36/4 9/15/4
f 30/15/1 26/18/1 27/17/1
f 48/22/5 47/41/5 42/21/5
f 51/45/1 49/46/1 54/47/1
f 52/48/2 50/37/2 49/46/2
f 55/49/3 53/50/3 50/37/3
f 54/51/4 49/52/4 50/48/4
f 51/52/5 56/53/5 55/49/5
f 54/27/6 53/50/6 55/49/6
f 58/16/1 57/17/1 59/54/1
f 62/54/3 63/17/3 64/16/3
f 60/55/5 61/56/5 64/57/5
f 59/54/6 62/58/6 61/59/6
f 58/16/2 64/60/2 63/61/2
f 57/17/4 63/62/4 62/63/4
f 24/43/1 3/1/1 22/3/1
f 3/1/2 4/4/2 1/2/2
f 4/4/3 23/6/3 2/5/3
f 2/4/4 21/8/4 1/10/4
f 4/4/5 3/10/5 23/6/5
f 48/34/2 45/12/2 47/14/2
f 11/18/1 7/15/1 10/17/1
f 8/39/6 7/15/6 12/19/6
f 33/34/4 34/20/4 14/14/4
f 15/64/2 16/22/2 13/24/2
f 40/65/1 19/25/1 38/27/1
f 19/25/2 20/28/2 17/26/2
f 20/28/3 39/30/3 18/29/3
f 37/25/4 38/31/4 18/28/4
f 20/28/5 19/32/5 39/30/5
f 35/66/1 15/34/1 34/35/1
f 41/14/3 43/13/3 48/22/3
f 16/14/3 36/22/3 14/13/3
f 25/39/4 28/15/4 26/37/4
f 31/44/5 32/38/5 30/37/5
f 47/66/1 46/35/1 42/34/1
f 36/34/6 35/14/6 33/12/6
f 42/64/6 44/24/6 41/22/6
f 24/66/6 22/35/6 23/6/6
f 40/67/6 38/40/6 39/30/6
f 16/14/5 15/21/5 36/22/5
f 5/38/3 8/39/3 9/42/3
f 6/38/2 5/43/2 10/42/2
f 31/38/6 27/42/6 32/43/6
f 8/39/5 5/38/5 7/37/5
f 32/38/3 28/42/3 29/39/3
f 45/34/4 43/14/4 46/20/4
f 29/39/2 25/19/2 30/15/2
f 12/39/4 11/37/4 9/15/4
f 31/16/1 30/15/1 27/17/1
f 41/14/5 48/22/5 42/21/5
f 56/68/1 51/45/1 54/47/1
f 51/45/2 52/48/2 49/46/2
f 52/48/3 55/49/3 50/37/3
f 53/45/4 54/51/4 50/48/4
f 52/48/5 51/52/5 55/49/5
f 56/65/6 54/27/6 55/49/6
f 60/55/1 58/16/1 59/54/1
f 61/55/3 62/54/3 64/16/3
f 58/16/5 60/55/5 64/57/5
f 60/55/6 59/54/6 61/59/6
f 57/17/2 58/16/2 63/61/2
f 59/54/4 57/17/4 62/63/4
